<?xml version="1.0" encoding="utf-8"?>
<!-- Generator: Adobe Illustrator 16.0.0, SVG Export Plug-In . SVG Version: 6.00 Build 0)  -->
<!DOCTYPE svg PUBLIC "-//W3C//DTD SVG 1.1//EN" "http://www.w3.org/Graphics/SVG/1.1/DTD/svg11.dtd">
<svg version="1.1" id="Layer_1" xmlns="http://www.w3.org/2000/svg" xmlns:xlink="http://www.w3.org/1999/xlink" x="0px" y="0px"
	 width="352px" height="358.333px" viewBox="0.167 -2.167 352 358.333" enable-background="new 0.167 -2.167 352 358.333"
	 xml:space="preserve">
<g id="JREpo3_1_">
	<g>
		<path fill="#FDFEFE" d="M177,351c0.01-45.316,0.02-90.633,0.027-135.949c0.004-22.666-0.078-45.332,0.065-67.996
			c0.029-4.51-1.53-6.331-6.098-6.105c-6.151,0.305-12.322,0.23-18.485,0.263c-6.891,0.037-6.872,0.01-6.903,7.129
			c-0.24,54.651,0.454,109.303-0.293,163.955c-0.061,4.477-1.136,5.24-5.38,4.089c-24.759-6.714-46.853-18.366-64.826-36.671
			c-44.06-44.869-55.539-97.482-36.016-157.097c1.171-3.576,3.041-4.759,6.823-4.682c15.324,0.314,30.655,0.275,45.982,0.379
			c16.948,0.115,33.896,0.272,50.845,0.358c11.784,0.06,23.567,0.083,35.351,0.031c15.654-0.068,31.323-0.712,46.96-0.23
			c25.021,0.772,43.165,20.154,42.895,45.166c-0.25,23.141-20.534,42.905-43.655,42.28c-2.388-0.064-3.521,0.855-4.562,2.852
			c-3.385,6.492-6.73,13.024-10.543,19.268c-2.928,4.791-3.592,7.97,0.441,13.417c17.999,24.31,35.055,49.315,52.446,74.073
			c4.428,6.303,4.562,6.496,11.049,1.746c58.83-43.08,84.388-100.721,72.839-172.952C331.712,55.198,246.111-8.054,156.565,3.16
			C110.027,8.989,71.886,30.37,42.068,66.563c-1.29,1.565-3.008,2.979-3.444,5.865c4.631-1.427,8.949-1.149,13.25-1.099
			c4.49,0.053,9.047-0.206,13.448,0.482c4.337,0.677,7.006-0.996,10.027-3.785c39.54-36.51,85.815-49.065,138.017-36.392
			c59.55,14.458,103.543,65.827,109.694,126.832c4.677,46.37-9.931,86.164-42.232,119.634c-2.811,2.91-4.273,3.483-6.893-0.42
			c-8.715-12.994-17.75-25.779-26.908-38.467c-2.405-3.332-2.309-4.509,1.789-5.96c29.414-10.42,48.692-36.336,50.391-67.314
			c2.318-42.306-32.053-78.859-74.52-78.937c-64.164-0.117-128.327,0-192.488-0.114c-3.353-0.006-5.001,1.147-6.536,3.98
			C9.066,121.515,1.87,154.062,4.8,188.908c2.99,35.566,15.861,67.039,38.228,94.684c28.793,35.59,67.25,54.375,111.197,63.438
			c7.224,1.492,14.515,2.656,21.775,3.971"/>
		<path fill="#2AD1B1" d="M176,351c0,0-14.551-2.479-21.775-3.971c-43.948-9.062-82.404-27.848-111.197-63.438
			C20.661,255.947,7.79,224.475,4.8,188.908c-2.93-34.847,4.267-67.394,20.864-98.04c1.535-2.833,3.183-3.987,6.536-3.98
			c64.163,0.113,128.325-0.003,192.487,0.114c42.467,0.077,76.838,36.631,74.521,78.937c-1.696,30.979-20.976,56.895-50.39,67.314
			c-4.098,1.451-4.195,2.628-1.791,5.96c9.16,12.688,18.193,25.473,26.91,38.467c2.617,3.903,4.082,3.33,6.892,0.42
			c32.303-33.47,46.909-73.264,42.233-119.634C316.91,97.462,272.916,46.092,213.367,31.634
			C161.165,18.96,114.89,31.516,75.35,68.026c-3.021,2.79-5.69,4.462-10.027,3.785c-4.401-0.688-8.958-0.429-13.448-0.482
			c-4.301-0.05-8.62-0.329-13.25,1.099c0.436-2.886,2.154-4.299,3.444-5.865C71.886,30.37,110.027,8.989,156.565,3.16
			c89.546-11.214,175.147,52.038,189.398,141.164c11.549,72.232-14.009,129.871-72.839,172.951
			c-6.487,4.752-6.621,4.558-11.049-1.746c-17.394-24.758-34.447-49.764-52.446-74.072c-4.033-5.447-3.369-8.626-0.441-13.417
			c3.812-6.242,7.158-12.774,10.543-19.267c1.041-1.996,2.174-2.916,4.562-2.853c23.121,0.625,43.406-19.14,43.656-42.28
			c0.271-25.012-17.874-44.394-42.896-45.166c-15.637-0.482-31.306,0.162-46.96,0.23c-11.784,0.051-23.567,0.029-35.351-0.031
			c-17.287-0.086-33.393-0.236-50.845-0.358c-15.328-0.104-30.659-0.064-45.982-0.379c-3.782-0.078-5.651,1.105-6.823,4.682
			c-19.523,59.615-8.044,112.229,36.016,157.097c17.973,18.304,40.066,29.957,64.826,36.671c4.244,1.151,5.319,0.387,5.38-4.089
			c0.747-54.651,0.053-109.304,0.293-163.955c0.031-7.12,0.012-7.093,6.903-7.129c6.163-0.033,12.334,0.042,18.485-0.263
			c4.567-0.226,6.127,1.595,6.098,6.105c-0.145,22.664-0.062,45.33-0.065,67.996C177.02,260.367,177,351,177,351H176z M44.745,68.01
			c6.991,0,13.006-0.347,18.96,0.106c5.062,0.386,8.542-1.43,12.346-4.682c49.376-42.204,104.482-51.303,163.904-25.216
			c61.605,27.045,96.688,95.166,84.838,161.363c-5.771,32.239-20.598,59.739-43.996,82.759c-3.859,3.799-4.994,2.938-7.594-0.908
			c-9.6-14.203-19.585-28.147-29.364-42.231c-1.397-2.015-4.169-3.964-3.597-6.249c0.568-2.27,3.956-1.229,6.042-1.885
			c28.651-9.014,48.737-35.523,49.909-66.148c1.558-40.668-31.103-74.799-71.795-74.843c-63.494-0.068-126.987,0.018-190.48-0.115
			c-3.59-0.008-5.273,1.317-6.824,4.27C9.593,127.544,3.263,162.772,8.973,200.012c6.361,41.484,25.881,75.721,57.373,103.299
			c29.627,25.942,65.505,36.959,103.287,43.57c4.457,0.779,4.355-1.523,4.351-4.688c-0.06-43.492-0.04-86.985-0.04-130.479
			c0-20.832-0.066-41.664,0.067-62.495c0.021-3.326-0.651-4.775-4.341-4.631c-4.971,0.193-9.995,0.015-14.945-0.493
			c-4.748-0.487-6.167,1.007-6.15,5.923c0.183,51.495,0.113,102.991,0.113,154.487c0,5.645,0,11.287,0,16.951
			c-2.144,0.443-3.782-1.041-5.685-1.495c-34.064-8.127-62.219-25.792-83.77-53.375c-24.284-31.081-34.712-66.45-31.515-105.891
			c1.222-15.072,5.529-29.305,9.978-43.582c0.73-2.343,2.113-2.141,3.729-2.127c7.495,0.062,14.99,0.231,22.485,0.225
			c49.806-0.047,99.612-0.163,149.417-0.164c7.138,0,14.33-0.196,21.354,1.539c23.389,5.775,37.885,25.699,36.326,49.896
			c-1.404,21.801-19.755,40.104-42.611,42.574c-2.78,0.301-5.443,0.752-7.035,3.764c-3.03,5.736-6.154,11.453-9.68,16.893
			c-2.179,3.363-1.763,5.741,0.469,8.896c17.49,24.729,34.895,49.524,52.07,74.476c2.637,3.83,4.402,4.052,7.998,1.383
			c57.876-42.954,82.671-99.997,70.638-171.249C330.48,69.937,267.372,10.272,186.828,5.204
			c-34.956-2.199-67.693,5.931-97.774,24.076C72.264,39.409,57.639,52.055,44.745,68.01z"/>
		<path fill="#FCFEFD" d="M44.745,68.01C57.639,52.054,72.264,39.408,89.054,29.28c30.081-18.146,62.818-26.275,97.774-24.076
			c80.544,5.068,143.652,64.732,156.028,138.013c12.033,71.252-12.762,128.295-70.638,171.249c-3.596,2.668-5.361,2.447-7.998-1.383
			c-17.177-24.95-34.58-49.745-52.07-74.476c-2.23-3.154-2.646-5.532-0.469-8.896c3.524-5.439,6.648-11.154,9.68-16.893
			c1.592-3.012,4.255-3.463,7.035-3.764c22.856-2.47,41.207-20.772,42.611-42.574c1.559-24.197-12.938-44.121-36.326-49.896
			c-7.024-1.734-14.218-1.539-21.354-1.539c-49.806,0-99.612,0.116-149.417,0.164c-7.495,0.007-14.99-0.162-22.485-0.225
			c-1.616-0.014-2.999-0.216-3.729,2.127c-4.449,14.277-8.755,28.51-9.978,43.582c-3.197,39.44,7.231,74.81,31.515,105.891
			c21.551,27.583,49.706,45.248,83.77,53.375c1.903,0.454,3.541,1.938,5.685,1.495c0-5.664,0-11.309,0-16.951
			c0-51.496,0.07-102.992-0.113-154.487c-0.018-4.916,1.402-6.41,6.15-5.923c4.951,0.508,9.974,0.687,14.945,0.493
			c3.69-0.144,4.362,1.306,4.341,4.631c-0.133,20.831-0.067,41.663-0.067,62.495c0,43.492-0.02,86.985,0.04,130.479
			c0.004,3.164,0.105,5.468-4.351,4.688c-37.782-6.611-73.66-17.628-103.287-43.57C34.854,275.73,15.334,241.495,8.973,200.01
			c-5.71-37.24,0.62-72.468,18.122-105.781c1.551-2.953,3.234-4.278,6.824-4.27c63.494,0.132,126.987,0.046,190.479,0.115
			c40.693,0.043,73.354,34.174,71.795,74.843c-1.172,30.625-21.256,57.135-49.908,66.147c-2.086,0.656-5.473-0.385-6.042,1.886
			c-0.572,2.284,2.198,4.233,3.597,6.249c9.779,14.084,19.766,28.027,29.364,42.232c2.601,3.846,3.733,4.705,7.594,0.907
			c23.399-23.019,38.225-50.521,43.996-82.759c11.853-66.197-23.231-134.317-84.838-161.363
			C180.534,12.132,125.428,21.231,76.052,63.435c-3.805,3.252-7.284,5.067-12.346,4.682C57.751,67.663,51.736,68.01,44.745,68.01z"
			/>
	</g>
</g>
</svg>
